<svg width="23" height="23" viewBox="0 0 23 23" fill="none" xmlns="http://www.w3.org/2000/svg">
<path d="M3.04964 23H19.0985C20.7809 23 22.1482 21.6328 22.1482 19.9504V4.75331C22.1482 3.07091 20.7809 1.70367 19.0985 1.70367H17.8889V0.851836C17.8889 0.383312 17.5055 0 17.037 0C16.5685 0 16.1852 0.383312 16.1852 0.851836V1.70367H5.96299V0.851836C5.96299 0.383312 5.57961 0 5.11109 0C4.64256 0 4.25925 0.383312 4.25925 0.851836V1.70367H3.04964C1.36723 1.70367 0 3.07091 0 4.75331V19.9504C0 21.6328 1.36723 23 3.04964 23ZM1.70374 4.75331C1.70374 4.01222 2.30855 3.40742 3.04964 3.40742H4.25925V4.25925C4.25925 4.72778 4.64256 5.11109 5.11109 5.11109C5.57961 5.11109 5.96292 4.72778 5.96292 4.25925V3.40742H16.1852V4.25925C16.1852 4.72778 16.5685 5.11109 17.037 5.11109C17.5055 5.11109 17.8888 4.72778 17.8888 4.25925V3.40742H19.0984C19.8395 3.40742 20.4443 4.01222 20.4443 4.75331V19.9504C20.4443 20.6915 19.8395 21.2963 19.0984 21.2963H3.04964C2.30855 21.2963 1.70374 20.6915 1.70374 19.9504V4.75331Z" fill="#C8C8C8"/>
<path d="M6.17582 9.7962C6.76389 9.7962 7.24061 9.31948 7.24061 8.73141C7.24061 8.14334 6.76389 7.66661 6.17582 7.66661C5.58775 7.66661 5.11102 8.14334 5.11102 8.73141C5.11102 9.31948 5.58775 9.7962 6.17582 9.7962Z" fill="#C8C8C8"/>
<path d="M10.8612 9.7962C11.4493 9.7962 11.926 9.31948 11.926 8.73141C11.926 8.14334 11.4493 7.66661 10.8612 7.66661C10.2731 7.66661 9.79639 8.14334 9.79639 8.73141C9.79639 9.31948 10.2731 9.7962 10.8612 9.7962Z" fill="#C8C8C8"/>
<path d="M15.5464 9.7962C16.1344 9.7962 16.6112 9.31948 16.6112 8.73141C16.6112 8.14334 16.1344 7.66661 15.5464 7.66661C14.9583 7.66661 14.4816 8.14334 14.4816 8.73141C14.4816 9.31948 14.9583 9.7962 15.5464 9.7962Z" fill="#C8C8C8"/>
<path d="M6.17582 14.0555C6.76389 14.0555 7.24061 13.5788 7.24061 12.9907C7.24061 12.4026 6.76389 11.9259 6.17582 11.9259C5.58775 11.9259 5.11102 12.4026 5.11102 12.9907C5.11102 13.5788 5.58775 14.0555 6.17582 14.0555Z" fill="#C8C8C8"/>
<path d="M10.8612 14.0555C11.4493 14.0555 11.926 13.5788 11.926 12.9907C11.926 12.4026 11.4493 11.9259 10.8612 11.9259C10.2731 11.9259 9.79639 12.4026 9.79639 12.9907C9.79639 13.5788 10.2731 14.0555 10.8612 14.0555Z" fill="#C8C8C8"/>
<path d="M15.5464 14.0555C16.1344 14.0555 16.6112 13.5788 16.6112 12.9907C16.6112 12.4026 16.1344 11.9259 15.5464 11.9259C14.9583 11.9259 14.4816 12.4026 14.4816 12.9907C14.4816 13.5788 14.9583 14.0555 15.5464 14.0555Z" fill="#C8C8C8"/>
<path d="M6.17582 18.3147C6.76389 18.3147 7.24061 17.838 7.24061 17.2499C7.24061 16.6619 6.76389 16.1852 6.17582 16.1852C5.58775 16.1852 5.11102 16.6619 5.11102 17.2499C5.11102 17.838 5.58775 18.3147 6.17582 18.3147Z" fill="#C8C8C8"/>
<path d="M10.8612 18.3147C11.4493 18.3147 11.926 17.838 11.926 17.2499C11.926 16.6619 11.4493 16.1852 10.8612 16.1852C10.2731 16.1852 9.79639 16.6619 9.79639 17.2499C9.79639 17.838 10.2731 18.3147 10.8612 18.3147Z" fill="#C8C8C8"/>
<path d="M15.5464 18.3147C16.1344 18.3147 16.6112 17.838 16.6112 17.2499C16.6112 16.6619 16.1344 16.1852 15.5464 16.1852C14.9583 16.1852 14.4816 16.6619 14.4816 17.2499C14.4816 17.838 14.9583 18.3147 15.5464 18.3147Z" fill="#C8C8C8"/>
</svg>
